<?xml version="1.0" standalone="no"?>
<!DOCTYPE svg PUBLIC "-//W3C//DTD SVG 20010904//EN"
 "http://www.w3.org/TR/2001/REC-SVG-20010904/DTD/svg10.dtd">
<svg version="1.0" xmlns="http://www.w3.org/2000/svg"
 width="109.000000pt" height="150.000000pt" viewBox="0 0 109.000000 150.000000"
 preserveAspectRatio="xMidYMid meet">

<g transform="translate(0.000000,150.000000) scale(0.100000,-0.100000)"
fill="#000000" stroke="none">
<path d="M320 732 c0 -5 17 -13 37 -18 33 -8 38 -14 46 -49 4 -22 7 -143 5
-268 -3 -213 -4 -230 -22 -243 -11 -8 -30 -14 -43 -14 -13 0 -23 -4 -23 -10 0
-6 50 -10 130 -10 80 0 130 4 130 10 0 6 -9 10 -21 10 -11 0 -29 5 -40 10 -18
10 -19 24 -19 280 l0 270 140 0 141 0 -3 -266 c-3 -250 -4 -266 -22 -280 -11
-8 -30 -14 -43 -14 -13 0 -23 -4 -23 -10 0 -6 50 -10 130 -10 80 0 130 4 130
10 0 6 -11 10 -23 10 -13 0 -31 8 -40 18 -15 16 -17 50 -17 274 0 274 -1 270
53 283 74 19 2 25 -288 25 -173 0 -315 -4 -315 -8z"/>
</g>
</svg>
